<svg width="200" height="19" viewBox="0 0 200 19" fill="none" xmlns="http://www.w3.org/2000/svg">
<path d="M0 0.205199H4.19104L15.2274 18.0802H11.1761L0 0.205199Z" fill="#00A1D6"/>
<path d="M20.047 0.274971H24.0984L15.856 13.6812L13.8303 10.19L20.047 0.274971Z" fill="#00A1D6"/>
<path d="M12.1543 5.79093L8.59204 0.205054L15.6468 0.205023L12.1543 5.79093Z" fill="#00A1D6"/>
<path d="M82.1248 0.205012H86.3158L97.3522 18.08H93.3009L82.1248 0.205012Z" fill="#FB7299"/>
<path d="M102.172 0.274937H106.223L97.9809 13.6812L95.9552 10.19L102.172 0.274937Z" fill="#FB7299"/>
<path d="M94.279 5.79089L90.7167 0.205009L97.7715 0.204978L94.279 5.79089Z" fill="#FB7299"/>
<path d="M121.291 0.253571V3.11892H116.573V17.9528H113.021V3.11892H108.303V0.253571H121.291Z" fill="#222222"/>
<path d="M127.383 0.253571V11.2078C127.383 12.4081 127.696 13.3294 128.321 13.9718C128.947 14.5972 129.826 14.91 130.96 14.91C132.109 14.91 132.997 14.5972 133.623 13.9718C134.249 13.3294 134.562 12.4081 134.562 11.2078V0.253571H138.138V11.1825C138.138 12.687 137.809 13.9633 137.149 15.0114C136.506 16.0426 135.635 16.8202 134.536 17.3442C133.454 17.8683 132.245 18.1303 130.909 18.1303C129.59 18.1303 128.389 17.8683 127.307 17.3442C126.241 16.8202 125.396 16.0426 124.77 15.0114C124.144 13.9633 123.831 12.687 123.831 11.1825V0.253571H127.383Z" fill="#222222"/>
<path d="M151.615 8.87498C152.613 9.06093 153.433 9.55962 154.075 10.371C154.718 11.1825 155.039 12.1122 155.039 13.1603C155.039 14.107 154.803 14.9438 154.329 15.6707C153.872 16.3807 153.204 16.9385 152.325 17.3442C151.446 17.75 150.406 17.9528 149.205 17.9528H141.57V0.253571H148.875C150.076 0.253571 151.107 0.447975 151.97 0.836783C152.849 1.22559 153.509 1.76654 153.948 2.45964C154.405 3.15273 154.633 3.9388 154.633 4.81784C154.633 5.84903 154.354 6.71117 153.796 7.40427C153.255 8.09736 152.528 8.5876 151.615 8.87498ZM145.121 7.55641H148.368C149.213 7.55641 149.864 7.37046 150.321 6.99855C150.778 6.60975 151.006 6.06034 151.006 5.35034C151.006 4.64034 150.778 4.09094 150.321 3.70213C149.864 3.31332 149.213 3.11892 148.368 3.11892H145.121V7.55641ZM148.698 15.0621C149.56 15.0621 150.228 14.8592 150.702 14.4535C151.192 14.0478 151.437 13.4731 151.437 12.7293C151.437 11.9685 151.184 11.3769 150.676 10.9543C150.169 10.5147 149.484 10.295 148.621 10.295H145.121V15.0621H148.698Z" fill="#222222"/>
<path d="M161.421 3.11892V7.55641H167.382V10.371H161.421V15.0621H168.143V17.9528H157.87V0.228212H168.143V3.11892H161.421Z" fill="#222222"/>
<path d="M180.503 17.9528L176.596 11.0557H174.922V17.9528H171.37V0.253571H178.017C179.386 0.253571 180.553 0.498689 181.517 0.988925C182.481 1.46226 183.2 2.11309 183.673 2.94142C184.164 3.75285 184.409 4.6657 184.409 5.67999C184.409 6.84641 184.071 7.90296 183.394 8.84962C182.718 9.77938 181.712 10.4218 180.376 10.7768L184.612 17.9528H180.503ZM174.922 8.39319H177.89C178.854 8.39319 179.572 8.16498 180.046 7.70855C180.519 7.23522 180.756 6.58439 180.756 5.75606C180.756 4.94463 180.519 4.31916 180.046 3.87963C179.572 3.42321 178.854 3.19499 177.89 3.19499H174.922V8.39319Z" fill="#222222"/>
<path d="M193.734 18.1303C192.5 18.1303 191.384 17.919 190.386 17.4964C189.405 17.0738 188.627 16.4652 188.052 15.6707C187.477 14.8762 187.181 13.9379 187.164 12.856H190.969C191.02 13.5829 191.274 14.1577 191.73 14.5803C192.204 15.0029 192.847 15.2142 193.658 15.2142C194.487 15.2142 195.138 15.0198 195.612 14.631C196.085 14.2253 196.322 13.7013 196.322 13.0589C196.322 12.5349 196.161 12.1038 195.84 11.7657C195.519 11.4276 195.113 11.1656 194.622 10.9796C194.149 10.7768 193.489 10.557 192.644 10.3203C191.494 9.98224 190.555 9.65259 189.828 9.33141C189.118 8.99331 188.5 8.49462 187.976 7.83534C187.469 7.15915 187.215 6.2632 187.215 5.14749C187.215 4.09939 187.477 3.18654 188.002 2.40892C188.526 1.6313 189.261 1.03964 190.208 0.633926C191.155 0.211309 192.238 0 193.455 0C195.282 0 196.762 0.447975 197.895 1.34392C199.045 2.22297 199.679 3.45701 199.797 5.04606H195.891C195.857 4.43749 195.595 3.9388 195.104 3.54999C194.631 3.14428 193.997 2.94142 193.202 2.94142C192.508 2.94142 191.95 3.11892 191.528 3.47392C191.122 3.82892 190.919 4.34451 190.919 5.0207C190.919 5.49403 191.071 5.89129 191.375 6.21248C191.697 6.51677 192.086 6.77034 192.542 6.9732C193.016 7.15915 193.675 7.37891 194.521 7.63248C195.671 7.97057 196.609 8.30867 197.336 8.64676C198.064 8.98486 198.689 9.492 199.214 10.1682C199.738 10.8444 200 11.7319 200 12.8307C200 13.7773 199.755 14.6564 199.264 15.4678C198.774 16.2792 198.055 16.9301 197.108 17.4203C196.161 17.8936 195.037 18.1303 193.734 18.1303Z" fill="#222222"/>
<path d="M30.9855 0.253571V17.9528H27.4341V0.253571H30.9855Z" fill="#222222"/>
<path d="M43.6262 17.9528L39.7197 11.0557H38.0455V17.9528H34.4942V0.253571H41.1403C42.5101 0.253571 43.6769 0.498689 44.6409 0.988925C45.6048 1.46226 46.3235 2.11309 46.7971 2.94142C47.2875 3.75285 47.5327 4.6657 47.5327 5.67999C47.5327 6.84641 47.1945 7.90296 46.518 8.84962C45.8416 9.77938 44.8354 10.4218 43.4994 10.7768L47.7356 17.9528H43.6262ZM38.0455 8.39319H41.0134C41.9774 8.39319 42.6961 8.16498 43.1696 7.70855C43.6431 7.23522 43.8799 6.58439 43.8799 5.75606C43.8799 4.94463 43.6431 4.31916 43.1696 3.87963C42.6961 3.42321 41.9774 3.19499 41.0134 3.19499H38.0455V8.39319Z" fill="#222222"/>
<path d="M61.6017 14.5803H54.5498L53.3829 17.9528H49.654L56.021 0.228212H60.1558L66.5229 17.9528H62.7686L61.6017 14.5803ZM60.6378 11.7403L58.0757 4.33606L55.5137 11.7403H60.6378Z" fill="#222222"/>
<path d="M72.4541 15.1382H78.2885V17.9528H68.9028V0.253571H72.4541V15.1382Z" fill="#222222"/>
</svg>
