<svg width="324" height="181" viewBox="0 0 324 181" fill="none" xmlns="http://www.w3.org/2000/svg">
<path d="M193.273 0C217.171 0 240.924 10.4666 257.822 28.4405C268.469 39.7646 276.306 53.982 280.652 69.308C291.098 71.4054 300.964 76.8285 308.487 84.8298C318.292 95.259 324 109.913 324 124.662C324 139.412 318.292 154.07 308.487 164.5C298.682 174.929 284.9 181 271.033 181H33.8088C24.9577 181 16.1592 177.126 9.9006 170.47C3.64184 163.813 0 154.454 0 145.04C0 135.625 3.64184 126.272 9.9006 119.615C16.1208 112.999 24.8501 109.136 33.6459 109.089C35.3623 92.0316 42.6277 75.6137 54.0412 63.4738C67.1843 49.4942 85.6563 41.3543 104.243 41.3543C108.756 41.3543 113.259 41.8465 117.683 42.773C120.921 37.634 124.608 32.818 128.724 28.4405C145.622 10.4666 169.375 0 193.273 0Z" fill="white"/>
</svg>
