<svg width="451" height="234" viewBox="0 0 451 234" fill="none" xmlns="http://www.w3.org/2000/svg">
<path d="M230.042 1.17392C229.371 1.25727 227.147 1.54667 225.1 1.79739C206.637 4.12524 187.857 12.1918 172.799 24.3642C168.581 27.7697 161.705 34.693 157.97 39.2926C150.845 48.0607 144.484 59.8224 141.315 70.1088C140.815 71.746 140.238 73.0661 140.061 73.0694C139.884 73.0727 138.957 72.7009 138.029 72.2582C126.889 66.9467 112.024 68.6409 101.944 76.4381C99.5025 78.324 95.585 82.644 93.8328 85.437C90.4644 90.7375 88.6918 96.2204 88.3801 102.242C88.3078 104.048 88.1234 105.538 88.0173 105.54C87.9112 105.542 85.6414 105.266 83.0165 104.926C57.5842 101.652 31.7908 109.319 15.6311 125.015C4.37069 135.913 -0.846749 150.166 1.35873 163.997C3.04401 174.617 9.58129 185.464 18.9588 193.038C34.1935 205.386 54.4732 211.269 76.7019 209.755C88.2227 208.973 98.997 206.117 108.742 201.228L112.634 199.315L113.855 202.158C120.594 218.098 134.892 229.543 152.295 233.003C156.913 233.943 168.938 233.646 173.375 232.502C183.199 229.911 191.078 225.517 197.748 218.881L201.152 215.49L204.042 216.746C220.667 223.971 240.806 224.266 257.558 217.512C261.737 215.805 268.182 212.287 271.182 210.002C272.473 209.022 273.661 208.221 273.767 208.219C273.909 208.217 275.311 209.429 276.932 210.92C290.398 223.301 309.755 230.936 329.369 231.523C348.665 232.117 365.876 227.194 381.106 216.646C385.717 213.481 391.739 208.131 394.891 204.497C396.795 202.268 401.215 196.417 402.038 195.021C402.209 194.735 403.304 194.644 405.465 194.745C413.433 195.091 420.87 193.536 427.599 190.083C444.317 181.489 453.033 163.243 449.049 145.128C448.236 141.428 447.231 138.793 445.178 134.939C438.907 123.237 427.115 115.213 413.493 113.345C409.058 112.756 401.989 113.136 398.01 114.201L395.264 114.925L391.766 111.452C379.399 99.1567 362.472 90.9457 344.844 88.693L341.758 88.2908L341.515 86.6675C339.768 74.6332 336.982 65.6971 331.73 55.4978C326.625 45.5435 320.527 37.3418 312.528 29.6712C296.097 13.9134 275.25 4.21891 251.95 1.43552C248.155 0.975858 232.866 0.802487 230.042 1.17392Z" fill="white"/>
</svg>
