<svg width="34" height="34" viewBox="0 0 34 34" fill="none" xmlns="http://www.w3.org/2000/svg">
<path d="M27.3327 27C28.2167 27 29.0646 27.3512 29.6897 27.9764C30.3148 28.6015 30.666 29.4493 30.666 30.3334C30.666 31.2174 30.3148 32.0653 29.6897 32.6904C29.0646 33.3155 28.2167 33.6667 27.3327 33.6667C25.4827 33.6667 23.9993 32.1667 23.9993 30.3334C23.9993 28.4834 25.4827 27 27.3327 27ZM0.666016 0.333374H6.11602L7.68268 3.66671H32.3327C32.7747 3.66671 33.1986 3.8423 33.5112 4.15486C33.8238 4.46742 33.9993 4.89135 33.9993 5.33337C33.9993 5.61671 33.916 5.90004 33.7993 6.16671L27.8327 16.95C27.266 17.9667 26.166 18.6667 24.916 18.6667H12.4993L10.9993 21.3834L10.9493 21.5834C10.9493 21.6939 10.9932 21.7999 11.0714 21.878C11.1495 21.9561 11.2555 22 11.366 22H30.666V25.3334H10.666C8.81602 25.3334 7.33268 23.8334 7.33268 22C7.33268 21.4167 7.48268 20.8667 7.73268 20.4L9.99935 16.3167L3.99935 3.66671H0.666016V0.333374ZM10.666 27C11.5501 27 12.3979 27.3512 13.023 27.9764C13.6482 28.6015 13.9993 29.4493 13.9993 30.3334C13.9993 31.2174 13.6482 32.0653 13.023 32.6904C12.3979 33.3155 11.5501 33.6667 10.666 33.6667C8.81602 33.6667 7.33268 32.1667 7.33268 30.3334C7.33268 28.4834 8.81602 27 10.666 27ZM25.666 15.3334L30.2993 7.00004H9.23268L13.166 15.3334H25.666Z" fill="#AAAAAA"/>
</svg>
