<svg width="40" height="40" viewBox="0 0 40 40" fill="none" xmlns="http://www.w3.org/2000/svg">
<path d="M28.3327 30C29.2167 30 30.0646 30.3512 30.6897 30.9764C31.3148 31.6015 31.666 32.4493 31.666 33.3334C31.666 34.2174 31.3148 35.0653 30.6897 35.6904C30.0646 36.3155 29.2167 36.6667 28.3327 36.6667C26.4827 36.6667 24.9993 35.1667 24.9993 33.3334C24.9993 31.4834 26.4827 30 28.3327 30ZM1.66602 3.33337H7.11602L8.68268 6.66671H33.3327C33.7747 6.66671 34.1986 6.8423 34.5112 7.15486C34.8238 7.46742 34.9993 7.89135 34.9993 8.33337C34.9993 8.61671 34.916 8.90004 34.7993 9.16671L28.8327 19.95C28.266 20.9667 27.166 21.6667 25.916 21.6667H13.4993L11.9993 24.3834L11.9493 24.5834C11.9493 24.6939 11.9932 24.7999 12.0714 24.878C12.1495 24.9561 12.2555 25 12.366 25H31.666V28.3334H11.666C9.81602 28.3334 8.33268 26.8334 8.33268 25C8.33268 24.4167 8.48268 23.8667 8.73268 23.4L10.9993 19.3167L4.99935 6.66671H1.66602V3.33337ZM11.666 30C12.5501 30 13.3979 30.3512 14.023 30.9764C14.6482 31.6015 14.9993 32.4493 14.9993 33.3334C14.9993 34.2174 14.6482 35.0653 14.023 35.6904C13.3979 36.3155 12.5501 36.6667 11.666 36.6667C9.81602 36.6667 8.33268 35.1667 8.33268 33.3334C8.33268 31.4834 9.81602 30 11.666 30ZM26.666 18.3334L31.2993 10H10.2327L14.166 18.3334H26.666Z" fill="white"/>
</svg>
