<svg width="16" height="16" viewBox="0 0 16 16" fill="none" xmlns="http://www.w3.org/2000/svg">
<path d="M12.8058 0.5C12.4753 0.5 12.1447 0.62622 11.8925 0.878418L10.3334 2.4375L13.5626 5.66667L15.1217 4.10758C15.6261 3.60319 15.6261 2.78548 15.1217 2.28109L13.719 0.878418C13.4668 0.62622 13.1363 0.5 12.8058 0.5ZM9.04174 3.72917L1.45944 11.3114C1.45944 11.3114 2.05217 11.2583 2.27305 11.4792C2.49393 11.7 2.3121 13.1454 2.58335 13.4167C2.85461 13.6879 4.29088 13.497 4.4969 13.703C4.70292 13.909 4.68864 14.5406 4.68864 14.5406L12.2709 6.95833L9.04174 3.72917ZM0.645838 13.4167L0.0365807 15.1423C0.0126296 15.2103 0.000264687 15.282 0 15.3542C0 15.5255 0.0680435 15.6897 0.189162 15.8108C0.31028 15.932 0.474551 16 0.645838 16C0.718025 15.9997 0.789656 15.9874 0.857754 15.9634C0.859861 15.9626 0.861963 15.9617 0.864061 15.9609L0.880459 15.9559L0.884244 15.9533L2.58335 15.3542L1.6146 14.3854L0.645838 13.4167Z" fill="#222222"/>
</svg>
