<svg width="34" height="34" viewBox="0 0 34 34" fill="none" xmlns="http://www.w3.org/2000/svg">
<path d="M24.2673 20.3334C24.4007 19.2334 24.5007 18.1334 24.5007 17C24.5007 15.8667 24.4007 14.7667 24.2673 13.6667H29.9007C30.1673 14.7334 30.334 15.85 30.334 17C30.334 18.15 30.1673 19.2667 29.9007 20.3334H24.2673ZM21.3173 29.6C22.3173 27.75 23.084 25.75 23.6173 23.6667H28.534C26.934 26.4167 24.384 28.55 21.3173 29.6ZM20.9007 20.3334H13.1007C12.934 19.2334 12.834 18.1334 12.834 17C12.834 15.8667 12.934 14.75 13.1007 13.6667H20.9007C21.0507 14.75 21.1673 15.8667 21.1673 17C21.1673 18.1334 21.0507 19.2334 20.9007 20.3334ZM17.0007 30.2667C15.6173 28.2667 14.5007 26.05 13.8173 23.6667H20.184C19.5007 26.05 18.384 28.2667 17.0007 30.2667ZM10.334 10.3334H5.46732C7.05065 7.56671 9.61732 5.43337 12.6673 4.40004C11.6673 6.25004 10.9173 8.25004 10.334 10.3334ZM5.46732 23.6667H10.334C10.9173 25.75 11.6673 27.75 12.6673 29.6C9.61732 28.55 7.05065 26.4167 5.46732 23.6667ZM4.10065 20.3334C3.83398 19.2667 3.66732 18.15 3.66732 17C3.66732 15.85 3.83398 14.7334 4.10065 13.6667H9.73398C9.60065 14.7667 9.50065 15.8667 9.50065 17C9.50065 18.1334 9.60065 19.2334 9.73398 20.3334H4.10065ZM17.0007 3.71671C18.384 5.71671 19.5007 7.95004 20.184 10.3334H13.8173C14.5007 7.95004 15.6173 5.71671 17.0007 3.71671ZM28.534 10.3334H23.6173C23.084 8.25004 22.3173 6.25004 21.3173 4.40004C24.384 5.45004 26.934 7.56671 28.534 10.3334ZM17.0007 0.333374C7.78398 0.333374 0.333984 7.83337 0.333984 17C0.333984 21.4203 2.08993 25.6595 5.21554 28.7852C6.76318 30.3328 8.6005 31.5605 10.6226 32.398C12.6447 33.2356 14.812 33.6667 17.0007 33.6667C21.4209 33.6667 25.6602 31.9108 28.7858 28.7852C31.9114 25.6595 33.6673 21.4203 33.6673 17C33.6673 14.8113 33.2362 12.6441 32.3986 10.622C31.5611 8.59989 30.3334 6.76257 28.7858 5.21493C27.2381 3.66728 25.4008 2.43963 23.3787 1.60205C21.3566 0.76447 19.1894 0.333374 17.0007 0.333374Z" fill="#AAAAAA"/>
</svg>
