<svg width="30" height="36" viewBox="0 0 30 36" fill="none" xmlns="http://www.w3.org/2000/svg">
<path d="M30 28.6667V30.3334H0V28.6667L3.33333 25.3334V15.3334C3.33333 10.1667 6.71667 5.61671 11.6667 4.15004C11.6667 3.98337 11.6667 3.83337 11.6667 3.66671C11.6667 2.78265 12.0179 1.93481 12.643 1.30968C13.2681 0.684563 14.1159 0.333374 15 0.333374C15.8841 0.333374 16.7319 0.684563 17.357 1.30968C17.9821 1.93481 18.3333 2.78265 18.3333 3.66671C18.3333 3.83337 18.3333 3.98337 18.3333 4.15004C23.2833 5.61671 26.6667 10.1667 26.6667 15.3334V25.3334L30 28.6667ZM18.3333 32C18.3333 32.8841 17.9821 33.7319 17.357 34.3571C16.7319 34.9822 15.8841 35.3334 15 35.3334C14.1159 35.3334 13.2681 34.9822 12.643 34.3571C12.0179 33.7319 11.6667 32.8841 11.6667 32" fill="#AAAAAA"/>
</svg>
