<svg width="35" height="35" viewBox="0 0 35 35" fill="none" xmlns="http://www.w3.org/2000/svg">
<path d="M3.25 0C2.38805 0 1.5614 0.34241 0.951903 0.951903C0.34241 1.5614 0 2.38805 0 3.25V26C0 26.862 0.34241 27.6886 0.951903 28.2981C1.5614 28.9076 2.38805 29.25 3.25 29.25H18.0212C17.9237 28.7138 17.875 28.1775 17.875 27.625C17.875 26.52 18.07 25.415 18.4438 24.375H3.25L8.9375 17.0625L13 21.9375L18.6875 14.625L22.3112 19.4513C23.8875 18.4275 25.74 17.875 27.625 17.875C28.1775 17.875 28.7138 17.9237 29.25 18.0212V3.25C29.25 1.44625 27.7875 0 26 0H3.25ZM26 21.125V26H21.125V29.25H26V34.125H29.25V29.25H34.125V26H29.25V21.125H26Z" fill="#222222"/>
</svg>
