<svg width="140" height="125" viewBox="0 0 140 125" fill="none" xmlns="http://www.w3.org/2000/svg">
<rect x="2" y="2" width="136" height="121" fill="#FB7299" stroke="#FB7299" stroke-width="4"/>
<path d="M35.7553 63.27L32.1013 73H30.2533L26.5853 63.27H28.2933L31.1773 71.362L34.0753 63.27H35.7553ZM42.894 73L40.654 69.108H39.436V73H37.84V63.27H41.2C41.9467 63.27 42.5767 63.4007 43.09 63.662C43.6127 63.9233 44 64.2733 44.252 64.712C44.5134 65.1507 44.644 65.6407 44.644 66.182C44.644 66.8167 44.4574 67.3953 44.084 67.918C43.72 68.4313 43.1554 68.7813 42.39 68.968L44.798 73H42.894ZM39.436 67.834H41.2C41.7974 67.834 42.2454 67.6847 42.544 67.386C42.852 67.0873 43.006 66.686 43.006 66.182C43.006 65.678 42.8567 65.286 42.558 65.006C42.2594 64.7167 41.8067 64.572 41.2 64.572H39.436V67.834ZM57.6837 63.27V73H56.0877V66.336L53.1197 73H52.0137L49.0317 66.336V73H47.4357V63.27H49.1577L52.5737 70.9L55.9757 63.27H57.6837ZM75.1662 63.27V73H73.5702V66.336L70.6022 73H69.4962L66.5142 66.336V73H64.9182V63.27H66.6402L70.0562 70.9L73.4582 63.27H75.1662ZM82.4519 73.098C81.5465 73.098 80.7112 72.888 79.9459 72.468C79.1899 72.0387 78.5879 71.446 78.1399 70.69C77.7012 69.9247 77.4819 69.066 77.4819 68.114C77.4819 67.162 77.7012 66.308 78.1399 65.552C78.5879 64.796 79.1899 64.208 79.9459 63.788C80.7112 63.3587 81.5465 63.144 82.4519 63.144C83.3665 63.144 84.2019 63.3587 84.9579 63.788C85.7232 64.208 86.3252 64.796 86.7639 65.552C87.2025 66.308 87.4219 67.162 87.4219 68.114C87.4219 69.066 87.2025 69.9247 86.7639 70.69C86.3252 71.446 85.7232 72.0387 84.9579 72.468C84.2019 72.888 83.3665 73.098 82.4519 73.098ZM82.4519 71.712C83.0959 71.712 83.6699 71.5673 84.1739 71.278C84.6779 70.9793 85.0699 70.5593 85.3499 70.018C85.6392 69.4673 85.7839 68.8327 85.7839 68.114C85.7839 67.3953 85.6392 66.7653 85.3499 66.224C85.0699 65.6827 84.6779 65.2673 84.1739 64.978C83.6699 64.6887 83.0959 64.544 82.4519 64.544C81.8079 64.544 81.2339 64.6887 80.7299 64.978C80.2259 65.2673 79.8292 65.6827 79.5399 66.224C79.2599 66.7653 79.1199 67.3953 79.1199 68.114C79.1199 68.8327 79.2599 69.4673 79.5399 70.018C79.8292 70.5593 80.2259 70.9793 80.7299 71.278C81.2339 71.5673 81.8079 71.712 82.4519 71.712ZM92.9204 63.27C93.9564 63.27 94.8617 63.4707 95.6364 63.872C96.4204 64.264 97.0224 64.8333 97.4424 65.58C97.8717 66.3173 98.0864 67.1807 98.0864 68.17C98.0864 69.1593 97.8717 70.018 97.4424 70.746C97.0224 71.474 96.4204 72.034 95.6364 72.426C94.8617 72.8087 93.9564 73 92.9204 73H89.7424V63.27H92.9204ZM92.9204 71.698C94.059 71.698 94.9317 71.39 95.5384 70.774C96.145 70.158 96.4484 69.29 96.4484 68.17C96.4484 67.0407 96.145 66.1587 95.5384 65.524C94.9317 64.8893 94.059 64.572 92.9204 64.572H91.3384V71.698H92.9204ZM102.014 64.558V67.414H105.374V68.716H102.014V71.698H105.794V73H100.418V63.256H105.794V64.558H102.014ZM110.106 71.712H113.396V73H108.51V63.27H110.106V71.712Z" fill="white"/>
<path d="M35.6458 86.24C35.6458 86.9467 35.4791 87.6133 35.1458 88.24C34.8124 88.8667 34.2791 89.38 33.5458 89.78C32.8124 90.1667 31.8724 90.36 30.7258 90.36H28.2058V96H25.9258V82.1H30.7258C31.7924 82.1 32.6924 82.2867 33.4258 82.66C34.1724 83.02 34.7258 83.5133 35.0858 84.14C35.4591 84.7667 35.6458 85.4667 35.6458 86.24ZM30.7258 88.5C31.5924 88.5 32.2391 88.3067 32.6658 87.92C33.0924 87.52 33.3058 86.96 33.3058 86.24C33.3058 84.72 32.4458 83.96 30.7258 83.96H28.2058V88.5H30.7258ZM45.7903 96L42.5903 90.44H40.8503V96H38.5703V82.1H43.3703C44.437 82.1 45.337 82.2867 46.0703 82.66C46.817 83.0333 47.3703 83.5333 47.7303 84.16C48.1036 84.7867 48.2903 85.4867 48.2903 86.26C48.2903 87.1667 48.0236 87.9933 47.4903 88.74C46.9703 89.4733 46.1636 89.9733 45.0703 90.24L48.5103 96H45.7903ZM40.8503 88.62H43.3703C44.2236 88.62 44.8636 88.4067 45.2903 87.98C45.7303 87.5533 45.9503 86.98 45.9503 86.26C45.9503 85.54 45.737 84.98 45.3103 84.58C44.8836 84.1667 44.237 83.96 43.3703 83.96H40.8503V88.62ZM54.237 83.94V88.02H59.037V89.88H54.237V94.14H59.637V96H51.957V82.08H59.637V83.94H54.237ZM75.1753 82.1L69.9553 96H67.3153L62.0753 82.1H64.5153L68.6353 93.66L72.7753 82.1H75.1753ZM80.112 82.1V96H77.832V82.1H80.112ZM86.1355 83.94V88.02H90.9355V89.88H86.1355V94.14H91.5355V96H83.8555V82.08H91.5355V83.94H86.1355ZM113.194 82.1L109.074 96H106.494L103.574 85.48L100.474 96L97.9138 96.02L93.9738 82.1H96.3938L99.2738 93.42L102.394 82.1H104.954L107.854 93.36L110.754 82.1H113.194Z" fill="white"/>
<path d="M70 39C73.3137 39 76 36.3137 76 33C76 29.6863 73.3137 27 70 27C66.6863 27 64 29.6863 64 33C64 36.3137 66.6863 39 70 39Z" fill="white"/>
<path d="M70 23C60 23 54 32.938 54 32.938C54 32.938 60 43 70 43C80 43 86 33 86 33C86 33 80 23 70 23ZM70 41C61.25 41 56.5 33 56.5 33C56.5 33 61.25 25 70 25C78.75 25 83.5 33 83.5 33C83.5 33 78.75 41 70 41Z" fill="white"/>
</svg>
